<?xml version="1.0" encoding="UTF-8" standalone="no"?>
<svg
   xmlns:dc="http://purl.org/dc/elements/1.1/"
   xmlns:cc="http://creativecommons.org/ns#"
   xmlns:rdf="http://www.w3.org/1999/02/22-rdf-syntax-ns#"
   xmlns:svg="http://www.w3.org/2000/svg"
   xmlns="http://www.w3.org/2000/svg"
   viewBox="0 0 424.78668 150.75333"
   height="150.75333"
   width="424.78668"
   xml:space="preserve"
   id="svg2"
   version="1.1"><metadata
     id="metadata8"><rdf:RDF><cc:Work
         rdf:about=""><dc:format>image/svg+xml</dc:format><dc:type
           rdf:resource="http://purl.org/dc/dcmitype/StillImage" /></cc:Work></rdf:RDF></metadata><defs
     id="defs6" /><g
     transform="matrix(1.3333333,0,0,-1.3333333,0,150.75333)"
     id="g10"><g
       transform="translate(0.598,15.567)"
       id="g12"><g
         id="g14"><g
           id="g16"><g
             id="g18" /><g
             id="g20" /><g
             id="g22"><g
               id="g24" /></g><g
             id="g26" /><g
             id="g28" /><g
             id="g30" /><g
             id="g32" /><g
             transform="translate(-0.598,-15.567)"
             id="g34"><g
               transform="translate(0.598,15.567)"
               id="g36"><g
                 id="g38"><g
                   id="g40"><g
                     id="g42"><g
                       id="g44"><path
                         id="path46"
                         style="fill:#ffe6cc;fill-opacity:1;fill-rule:nonzero;stroke:none"
                         d="m 0,0 0.3331,0.02228 0.33311,0.0227 0.33313,0.02315 0.3331,0.02354 0.33313,0.02398 0.33312,0.02438 0.33311,0.02483 0.33312,0.02526 0.33311,0.02575 0.33313,0.02616 0.33312,0.02666 0.3331,0.0271 L 4.3305,0.3234 4.66362,0.35146 4.99675,0.38 l 0.3331,0.02909 0.33313,0.02955 0.33312,0.03009 0.33311,0.0306 0.33311,0.03113 0.33312,0.03167 0.33313,0.0322 0.33311,0.03277 0.3331,0.03332 0.33313,0.03384 0.33312,0.03444 0.33313,0.03502 0.3331,0.03568 0.33313,0.0362 0.33311,0.0368 0.3331,0.03745 0.33313,0.03801 0.33311,0.0387 0.33313,0.03934 0.3331,0.03997 0.33312,0.04062 0.33313,0.04128 0.33311,0.04194 0.33312,0.04267 0.33311,0.04332 0.33313,0.04402 0.33311,0.04472 0.3331,0.04546 0.33314,0.04617 0.33311,0.04689 0.33313,0.04768 0.3331,0.04836 0.33312,0.04922 0.33312,0.04993 0.33312,0.05072 0.33311,0.05147 0.33312,0.05232 0.33313,0.05318 0.33311,0.05389 0.3331,0.05475 0.33313,0.0556 0.33312,0.05649 0.33311,0.05734 0.33311,0.05817 0.33312,0.05908 0.33313,0.05997 0.3331,0.06085 0.33313,0.06174 0.33311,0.06271 0.33313,0.06363 0.3331,0.06454 0.33312,0.0655 0.33313,0.0665 0.33311,0.06745 0.33312,0.06844 0.33311,0.0694 0.33311,0.07043 0.33314,0.07148 0.33309,0.07244 0.33313,0.07352 0.33312,0.07448 0.33313,0.07563 0.3331,0.07674 0.33311,0.0777 0.33313,0.07886 0.33312,0.07993 0.33311,0.08106 0.33312,0.08223 0.33311,0.08331 0.33313,0.0845 0.3331,0.08564 0.33313,0.08684 0.33312,0.08796 0.33311,0.08915 0.33311,0.09042 0.33312,0.09151 0.33313,0.09283 0.3331,0.09407 0.33313,0.09531 0.33311,0.09659 0.33312,0.09785 0.33311,0.09911 0.33312,0.10045 0.33313,0.10168 0,-5.40361 z" /></g><g
                       id="g48"><path
                         id="path50"
                         style="fill:none;stroke:#49768d;stroke-width:1.19553006;stroke-linecap:butt;stroke-linejoin:miter;stroke-miterlimit:10;stroke-dasharray:none;stroke-opacity:1"
                         d="m 0,0 2.98311,0.2147 2.98311,0.25132 2.98314,0.29298 2.9831,0.34012 2.98313,0.39328 2.98312,0.45276 2.98313,0.5191 2.98312,0.59269 2.98312,0.67378 2.98311,0.76279 2.98314,0.85978 2.98311,0.96495 2.98314,1.07828 2.98311,1.19952 2.98312,1.32428 2.98312,1.47025 2.98313,1.60747 2.98312,1.75645 2.98311,1.91132 2.98312,2.06813 2.98313,2.22593 2.98312,2.3926 2.98313,2.54842 2.98312,2.70526 2.98311,2.8542 2.98314,3.00029 2.98311,3.13554 2.98313,3.25607 2.98311,3.36197 2.98313,3.46096 2.98312,3.51974 2.98312,3.57858 2.98313,3.59818 2.98312,3.5972 2.98311,3.56973 2.98314,3.51976 2.98311,3.43057 2.98314,3.31392 2.98311,3.16692 2.98312,3.00027 2.98312,2.79346 2.98312,2.5592 2.98315,2.30437 2.9831,2.01912 2.98313,1.71529 2.98314,1.40359 2.98311,1.05856 2.98314,0.71455 2.9831,0.36364 h 2.98313 l 2.98312,-0.36364 2.98312,-0.71455 2.98313,-1.05856 2.98313,-1.39281 2.98312,-1.71528 2.98312,-2.02991 2.98312,-2.29457 2.98313,-2.569 2.98312,-2.78366 2.98313,-2.9993 2.98312,-3.16789 2.98312,-3.31294 2.98312,-3.43252 2.98313,-3.51879 2.98312,-3.56876 2.98313,-3.59818 2.98312,-3.60797 2.98313,-3.56875 2.9831,-3.52957 2.98313,-3.45019 2.98312,-3.36292 2.98312,-3.25512 2.98313,-3.13749 2.98312,-3.00029 2.98311,-2.86302 2.98314,-2.69449 2.98311,-2.55919 2.98314,-2.38277 2.98311,-2.23576 2.98312,-2.06813 2.98312,-1.91132 2.98313,-1.75645 2.98312,-1.60747 2.98313,-1.47025 2.9831,-1.32179 2.98313,-1.19981 2.98312,-1.07843 2.98313,-0.96523 2.98312,-0.86004 2.98311,-0.76291 2.98314,-0.67397 2.98311,-0.59279 2.98313,-0.51927 2.98311,-0.45291 2.98312,-0.39333 2.98313,-0.34025 2.98312,-0.29305 2.98313,-0.2514 2.98312,-0.21477" /></g><g
                       id="g52"><path
                         id="path54"
                         style="fill:none;stroke:#000000;stroke-width:0.3985;stroke-linecap:butt;stroke-linejoin:miter;stroke-miterlimit:10;stroke-dasharray:2.98883, 2.98883;stroke-dashoffset:0;stroke-opacity:1"
                         d="M 32.97906,-1.0888 V 11.19513" /><g
                         id="g56"><g
                           transform="translate(25.091,-11.416)"
                           id="g58"><g
                             id="g60"><g
                               transform="translate(-25.689,-4.151)"
                               id="g62"><text
                                 id="text66"
                                 style="font-variant:normal;font-weight:normal;font-size:9.96259975px;font-family:CMSY10;-inkscape-font-specification:CMSY10;writing-mode:lr-tb;fill:#000000;fill-opacity:1;fill-rule:nonzero;stroke:none"
                                 transform="matrix(1,0,0,-1,25.689,4.151)"><tspan
                                   id="tspan64"
                                   y="0"
                                   x="0">−</tspan></text>
<text
                                 id="text70"
                                 style="font-variant:normal;font-weight:normal;font-size:9.96259975px;font-family:CMMI10;-inkscape-font-specification:CMMI10;writing-mode:lr-tb;fill:#000000;fill-opacity:1;fill-rule:nonzero;stroke:none"
                                 transform="matrix(1,0,0,-1,33.438,4.151)"><tspan
                                   id="tspan68"
                                   y="0"
                                   x="0">V</tspan></text>
<g
                                 transform="translate(25.689,4.151)"
                                 id="g72" /></g></g><g
                             transform="translate(-25.091,11.416)"
                             id="g74" /></g></g><g
                         id="g76"><g
                           transform="translate(26.337,15.268)"
                           id="g78"><g
                             id="g80"><g
                               transform="translate(-26.935,-30.835)"
                               id="g82"><text
                                 id="text86"
                                 style="font-variant:normal;font-weight:normal;font-size:9.96259975px;font-family:CMR10;-inkscape-font-specification:CMR10;writing-mode:lr-tb;fill:#000000;fill-opacity:1;fill-rule:nonzero;stroke:none"
                                 transform="matrix(1,0,0,-1,26.935,30.835)"><tspan
                                   id="tspan84"
                                   y="0"
                                   x="0 4.9812999">1%</tspan></text>
<g
                                 transform="translate(26.935,30.835)"
                                 id="g88" /></g></g><g
                             transform="translate(-26.337,-15.268)"
                             id="g90" /></g></g></g></g><g
                     id="g92"><g
                       id="g94"><path
                         id="path96"
                         style="fill:none;stroke:#bfbfbf;stroke-width:0.3985;stroke-linecap:butt;stroke-linejoin:miter;stroke-miterlimit:10;stroke-dasharray:none;stroke-opacity:1"
                         d="M 147.66745,0 V 96.90184" /></g></g><g
                     id="g98"><g
                       id="g100"><path
                         id="path102"
                         style="fill:none;stroke:#808080;stroke-width:0.19925;stroke-linecap:butt;stroke-linejoin:miter;stroke-miterlimit:10;stroke-dasharray:none;stroke-opacity:1"
                         d="M 147.66745,0 V 4.25172" /></g></g><path
                     id="path104"
                     style="fill:none;stroke:#000000;stroke-width:0.3985;stroke-linecap:butt;stroke-linejoin:miter;stroke-miterlimit:10;stroke-dasharray:none;stroke-opacity:1"
                     d="M 0,0 H 295.3291" /><g
                     id="g106"><g
                       transform="translate(145.175,-9.94)"
                       id="g108"><g
                         id="g110"><g
                           transform="translate(-145.773,-5.627)"
                           id="g112"><text
                             id="text116"
                             style="font-variant:normal;font-weight:normal;font-size:9.96259975px;font-family:CMR10;-inkscape-font-specification:CMR10;writing-mode:lr-tb;fill:#000000;fill-opacity:1;fill-rule:nonzero;stroke:none"
                             transform="matrix(1,0,0,-1,145.773,5.627)"><tspan
                               id="tspan114"
                               y="0"
                               x="0">0</tspan></text>
<g
                             transform="translate(145.773,5.627)"
                             id="g118" /></g></g><g
                         transform="translate(-145.175,9.94)"
                         id="g120" /></g></g><g
                     id="g122"><g
                       transform="translate(298.897,-3.404)"
                       id="g124"><g
                         id="g126"><g
                           transform="translate(-299.495,-12.163)"
                           id="g128"><text
                             id="text132"
                             style="font-variant:normal;font-weight:normal;font-size:9.96259975px;font-family:CMR10;-inkscape-font-specification:CMR10;writing-mode:lr-tb;fill:#000000;fill-opacity:1;fill-rule:nonzero;stroke:none"
                             transform="matrix(1,0,0,-1,299.495,12.163)"><tspan
                               id="tspan130"
                               y="0"
                               x="0 8.3018341">∆Π</tspan></text>
<g
                             transform="translate(299.495,12.163)"
                             id="g134" /></g></g><g
                         transform="translate(-298.897,3.404)"
                         id="g136" /></g></g></g></g><g
                 transform="translate(-0.598,-15.567)"
                 id="g138" /></g><g
               transform="translate(0.598,15.567)"
               id="g140" /></g><g
             id="g142" /><g
             id="g144" /></g></g></g></g></svg>